<svg version="1.1" id="Layer_1" xmlns="http://www.w3.org/2000/svg" xmlns:xlink="http://www.w3.org/1999/xlink" x="0px" y="0px"
	 width="100%" viewBox="0 0 932 150" enable-background="new 0 0 932 150" xml:space="preserve">
<path fill="#000000" opacity="1.000000" stroke="none" 
	d="
M670.000000,151.000000 
	C447.000000,151.000000 223.999985,151.000000 1.000000,151.000000 
	C1.000000,131.577576 1.000000,112.255768 1.283486,92.170471 
	C3.379131,91.694901 5.191290,91.982826 7.102300,92.586029 
	C12.458202,99.730064 20.152031,99.127327 27.531940,99.114479 
	C29.079002,105.384834 26.359579,111.788033 31.471384,117.329391 
	C36.930702,123.247475 43.712143,119.687668 49.990585,121.543724 
	C49.990585,124.424248 49.897446,127.227501 50.008873,130.022583 
	C50.289761,137.068329 55.180214,143.016113 60.994717,143.052200 
	C70.989388,143.114197 80.985641,142.922211 91.446732,142.907013 
	C99.271088,142.933517 106.629951,142.889847 114.454102,142.910645 
	C120.368553,143.006393 125.817825,143.074799 131.266861,143.058945 
	C137.198044,143.041687 142.209167,138.212250 142.890518,131.545166 
	C142.915512,123.725121 142.873367,116.370277 142.897949,108.549828 
	C142.924698,101.391907 142.884705,94.699593 142.904343,87.541611 
	C142.972992,80.086922 142.954132,73.097717 142.997757,66.108917 
	C143.057968,56.465153 137.654739,51.387142 127.987381,51.972641 
	C125.759911,52.107544 123.517311,51.992538 121.297707,51.992538 
	C120.460762,44.917690 122.167412,38.310791 116.685005,33.018757 
	C111.317337,27.837477 104.664314,29.621944 97.998947,28.600061 
	C97.998947,25.780613 97.975594,23.164236 98.003395,20.548401 
	C98.081726,13.178028 92.712013,7.197481 85.450798,7.028610 
	C78.636002,6.870121 71.812111,7.102798 64.526733,7.108402 
	C53.036549,7.086323 42.011852,7.119195 30.523392,7.099411 
	C26.130463,7.014252 22.158903,6.621775 18.287262,7.077724 
	C15.769979,7.374175 13.398229,8.906399 10.649420,10.053221 
	C9.518282,11.231387 8.576206,12.165711 7.900173,13.263822 
	C4.239049,19.210747 6.560706,25.740431 6.101868,32.473419 
	C6.086479,39.297981 6.129956,45.657944 6.115621,52.480286 
	C6.038548,57.956257 6.019288,62.969852 5.583339,67.984161 
	C3.777767,67.989922 2.388884,67.994957 1.000000,68.000000 
	C1.000000,45.673573 1.000000,23.347149 1.000000,1.015542 
	C311.563690,1.010361 622.127380,1.010361 932.845520,1.010361 
	C932.845520,50.881115 932.845520,100.762871 932.845520,151.000000 
	C848.311646,151.000000 763.622803,151.000000 678.477356,150.617111 
	C677.020142,147.497696 676.222839,144.659851 674.931641,142.068100 
	C674.301147,140.802429 672.473206,138.965927 671.670532,139.182129 
	C669.630981,139.731491 667.864014,141.292679 665.987915,142.448792 
	C667.498596,144.369949 669.009216,146.291107 670.997803,148.820053 
	C671.047913,148.710571 670.523926,149.855286 670.000000,151.000000 
M885.413208,94.869270 
	C889.498230,94.869270 893.583252,94.869270 898.310425,94.869270 
	C898.310425,86.407753 898.310425,78.192734 898.992737,69.723557 
	C902.575378,69.146118 906.158020,68.568680 909.946716,68.913284 
	C909.965698,73.715767 909.872742,78.522118 910.038940,83.319504 
	C910.172302,87.168243 910.619995,91.006088 911.855591,94.948021 
	C915.099487,94.948021 918.343323,94.948021 922.080750,94.948021 
	C922.080750,84.450493 922.389343,74.678619 921.941040,64.941597 
	C921.739136,60.556412 918.427979,57.627846 914.130615,56.467815 
	C907.724426,54.738544 902.217834,56.862072 897.094788,62.010845 
	C897.466614,58.135708 897.992493,55.372295 897.951721,52.617260 
	C897.759460,39.607864 900.381348,40.965115 885.181274,41.466343 
	C885.150940,59.000061 885.120605,76.533783 885.413208,94.869270 
M573.178223,57.447823 
	C573.095642,69.288506 572.996643,81.129166 572.974731,92.969955 
	C572.973511,93.620934 573.612854,94.273087 574.876404,94.972679 
	C576.703064,94.980408 578.549255,94.820305 580.352600,95.029251 
	C584.695923,95.532471 586.435364,93.808121 586.055847,89.396004 
	C585.758057,85.934212 585.995972,82.426315 585.996338,78.938904 
	C585.997131,71.182129 587.175171,69.852386 594.814270,69.000641 
	C595.635254,68.909111 596.501770,68.987022 597.275513,68.751266 
	C601.759399,67.385086 599.481995,63.077679 600.617676,60.257629 
	C600.781311,59.851349 597.800293,57.517082 596.039856,57.122757 
	C590.951233,55.982990 588.290527,59.826462 585.364624,63.945549 
	C585.048828,61.221073 584.830139,59.334984 584.567993,57.073803 
	C580.866272,57.073803 577.410461,57.073803 573.178223,57.447823 
M200.793869,59.663464 
	C200.793869,58.533005 200.793869,57.402542 200.793869,55.858650 
	C196.874298,55.858650 193.007401,55.858650 189.492783,55.858650 
	C188.991348,52.639263 188.560547,49.873352 187.190002,47.038155 
	C183.597748,47.038155 180.005508,47.038155 176.298706,47.038155 
	C176.068481,50.692387 175.884399,53.613884 175.695633,56.609932 
	C173.598541,56.905972 171.858795,57.151562 170.291473,57.372810 
	C169.879196,60.598858 169.510635,63.482937 169.112335,66.599632 
	C171.336380,66.868721 173.409561,67.119560 175.310898,67.349609 
	C175.586395,67.955956 175.832733,68.249352 175.837906,68.546928 
	C175.913010,72.871323 175.901520,77.197746 176.018707,81.520760 
	C176.207977,88.502495 179.509842,94.426552 183.886322,94.680847 
	C188.596100,94.954498 193.359436,94.505623 198.086563,94.183449 
	C199.965607,94.055374 202.476685,93.989220 201.371506,90.819153 
	C200.368500,87.942184 202.612823,83.131508 196.863983,83.013481 
	C194.317825,82.961205 191.769714,83.004662 189.335373,83.004662 
	C189.335373,77.700325 189.335373,72.604897 189.335373,67.574097 
	C200.083725,65.791412 200.083725,65.791412 200.793869,59.663464 
M820.023315,94.985504 
	C820.341797,93.860138 820.921936,92.738022 820.935913,91.608871 
	C821.021606,84.712502 821.027710,77.813873 820.934998,70.917686 
	C820.917664,69.628990 820.332153,68.347931 820.012512,66.302849 
	C819.197693,64.557938 818.715027,62.530472 817.511780,61.116005 
	C811.671875,54.251354 803.675720,55.917892 796.571228,57.212368 
	C788.159668,58.744980 789.051941,57.186478 789.008728,66.717705 
	C789.004395,67.666229 789.136414,68.615379 789.229126,69.894905 
	C793.352356,69.379662 797.682129,71.895981 800.549500,66.794518 
	C801.082275,65.846642 804.501038,65.717354 806.058105,66.406754 
	C807.271301,66.943924 807.661804,69.339203 808.895020,71.899010 
	C805.418823,71.899010 803.296570,71.776215 801.193176,71.923126 
	C795.891541,72.293404 790.811829,73.041801 787.461609,78.062126 
	C782.685547,85.219292 786.585266,94.690018 795.017578,94.758987 
	C799.890381,94.798851 804.780518,92.722626 809.852722,91.555077 
	C809.911499,91.861893 810.179321,93.259026 810.489563,94.877411 
	C813.560852,94.877411 816.362427,94.877411 820.023315,94.985504 
M313.109619,41.478821 
	C313.109619,59.274757 313.109619,77.070694 313.109619,95.441216 
	C317.721191,94.958572 321.820435,94.529549 325.971161,93.151932 
	C325.979462,88.829384 325.993744,84.506836 325.994904,80.184288 
	C325.998199,68.108376 325.996033,68.108376 337.958557,68.911659 
	C337.965118,74.075912 337.860901,79.243507 338.016785,84.403252 
	C338.122650,87.909210 338.593109,91.404175 339.800446,94.964935 
	C343.154999,94.669960 346.509552,94.374992 350.353699,94.667084 
	C350.571930,85.340202 350.811554,76.013664 350.962769,66.685692 
	C350.973450,66.026772 350.332397,65.357285 350.089447,63.969070 
	C344.446930,50.924713 335.253815,56.465755 325.996033,60.025784 
	C325.996033,57.190319 326.041412,54.902805 325.988556,52.617561 
	C325.690247,39.722412 328.518799,40.915398 313.109619,41.478821 
M469.153259,57.575001 
	C469.114044,73.812477 469.062012,90.049957 469.071198,106.287399 
	C469.071686,107.147041 469.589691,108.006386 470.805695,108.953064 
	C474.396423,108.953064 477.987183,108.953064 481.953705,108.953064 
	C481.953705,103.109673 481.953705,98.001350 481.953705,92.461960 
	C483.016846,92.968269 483.559570,93.324509 484.155457,93.496048 
	C495.670471,96.810837 502.859619,95.130783 505.446930,85.443275 
	C507.043915,79.463928 506.479095,72.723503 505.939819,66.405426 
	C505.315338,59.088917 497.338593,54.369083 490.125244,56.181149 
	C486.968231,56.974224 484.228821,59.429749 481.100647,61.245983 
	C481.479065,57.966053 480.126648,56.590904 476.850769,56.962517 
	C474.546143,57.223949 472.196838,57.091198 469.153259,57.575001 
M381.000732,56.022911 
	C370.565186,58.861259 367.006165,63.424156 367.007629,73.958855 
	C367.007935,76.123581 367.021729,78.288582 366.993225,80.452980 
	C366.918488,86.123444 369.470764,90.382286 374.540283,92.624878 
	C382.962280,96.350456 391.573730,95.309883 399.975739,92.373383 
	C401.010803,92.011620 402.121155,89.739090 401.954315,88.522369 
	C401.640656,86.235321 400.419800,84.072685 399.599121,81.918556 
	C385.027283,86.176636 380.957672,85.847687 378.328156,79.989853 
	C383.618561,79.989853 388.710693,80.063499 393.799591,79.966164 
	C397.756042,79.890488 403.453064,74.533531 402.890167,71.095894 
	C401.960846,65.420471 400.125763,59.909824 393.876190,58.030396 
	C390.019592,56.870602 385.885468,56.633690 381.000732,56.022911 
M246.883087,77.614380 
	C248.251541,75.439888 250.932556,74.653275 250.597610,70.761215 
	C249.432846,57.226944 237.496674,55.060558 227.155762,56.554428 
	C224.809189,56.893417 222.259399,58.315186 220.526489,59.987919 
	C212.391190,67.840782 213.613846,77.381081 216.445435,86.953278 
	C216.903000,88.500114 218.496201,89.894211 219.875732,90.953552 
	C225.968979,95.632469 233.219559,95.627808 240.188293,94.681633 
	C250.535065,93.276817 251.079147,91.827003 247.251068,81.744415 
	C243.565872,82.823158 239.902328,84.385239 236.101471,84.869377 
	C232.357498,85.346275 228.316147,85.063324 225.896408,79.991577 
	C231.382080,79.991577 236.171448,80.156807 240.939133,79.907410 
	C242.757507,79.812294 244.526154,78.766548 246.883087,77.614380 
M541.245544,94.988670 
	C545.080444,94.362488 548.926514,93.797188 552.746765,93.091652 
	C556.046387,92.482262 557.587830,91.123657 556.317627,87.210480 
	C554.394165,81.284691 554.710388,81.199913 548.854675,83.353996 
	C547.317688,83.919380 545.732483,84.763939 544.168701,84.765625 
	C540.168335,84.769936 535.580872,85.874886 532.833618,79.990181 
	C538.565918,79.990181 543.642151,80.080872 548.713684,79.965042 
	C553.935425,79.845779 557.829590,74.232956 557.308533,69.315475 
	C556.036255,57.309872 543.692261,54.945496 534.115601,56.568489 
	C531.760559,56.967602 529.276245,58.375282 527.482971,60.011551 
	C519.674744,67.136131 520.593140,76.385925 523.035950,85.092819 
	C525.346680,93.328659 532.963257,94.609650 541.245544,94.988670 
M772.013000,76.399712 
	C772.295105,69.340988 771.146667,62.871597 764.505310,58.786171 
	C757.348938,54.383911 749.334473,54.372696 742.809021,58.451477 
	C735.043823,63.305168 732.810425,71.895424 734.071716,80.982307 
	C735.019104,87.807922 738.047546,93.355034 745.502808,94.486710 
	C749.497742,95.093109 753.762878,95.074265 757.744385,94.392792 
	C768.795593,92.501266 771.760437,85.251503 772.013000,76.399712 
M439.832123,91.803497 
	C441.031982,92.849251 442.225220,94.766609 443.432892,94.775726 
	C446.917603,94.802032 450.408142,94.059181 454.677277,93.519714 
	C452.590210,89.080658 451.533112,84.597855 448.829498,81.599854 
	C444.662628,76.979225 445.757721,73.658455 448.960449,69.343063 
	C451.450195,65.988289 452.971649,61.914852 455.346130,57.347870 
	C449.636261,56.953415 445.637329,56.677158 442.126587,56.434631 
	C439.893494,60.900085 437.647339,65.391632 434.914642,70.856087 
	C432.642090,65.927094 431.806671,60.828682 428.822815,58.575668 
	C425.889984,56.361214 420.775909,57.035522 416.356384,56.404713 
	C415.439728,62.984886 418.469421,66.979080 421.315033,70.883110 
	C423.831909,74.336082 424.892487,77.130478 421.656921,81.032860 
	C418.842499,84.427238 417.148224,88.750343 414.575439,93.348480 
	C417.770813,93.904892 419.847076,94.150978 421.864075,94.640854 
	C426.548248,95.778511 429.296082,94.375664 430.504547,89.388420 
	C431.100555,86.928726 433.082092,84.804771 434.691895,82.100128 
	C436.563904,85.607887 438.033051,88.360710 439.832123,91.803497 
M631.869141,67.309776 
	C634.018555,67.201836 636.235107,67.375496 638.293396,66.885101 
	C639.624023,66.568092 641.362427,65.516457 641.786621,64.373917 
	C642.559143,62.293354 642.490234,59.900364 642.851379,57.003998 
	C640.777527,57.003998 638.993408,57.004002 637.209229,57.004002 
	C635.283386,57.004002 633.357544,57.003998 631.546570,57.003998 
	C630.034912,46.297745 628.114075,45.060547 618.003723,47.943867 
	C618.003723,49.312611 618.046509,50.790035 617.991516,52.263809 
	C617.937683,53.707012 617.784302,55.146496 617.676758,56.559044 
	C615.570374,56.918823 613.848999,57.212845 612.216858,57.491619 
	C611.531189,66.535576 611.531189,66.535576 618.005127,67.629860 
	C618.005127,72.435867 617.977173,77.368507 618.012939,82.300682 
	C618.049561,87.346237 619.291809,92.057976 624.398560,94.024086 
	C627.172180,95.091911 630.522766,95.147575 633.564758,94.942596 
	C643.731140,94.257607 644.894653,94.576561 641.845276,83.897865 
	C641.767517,83.625702 641.424011,83.429420 641.354309,83.355843 
	C637.887390,83.355843 634.573181,83.355843 631.258118,83.355843 
	C631.258118,77.925346 631.258118,72.953514 631.869141,67.309776 
M835.989136,71.994057 
	C835.994812,74.321388 835.756287,76.680405 836.053345,78.969917 
	C836.849426,85.104996 837.708374,91.722694 845.026306,93.348244 
	C850.562500,94.578033 856.461670,95.036415 862.102356,94.596252 
	C865.274475,94.348740 868.250061,91.581924 871.698242,89.745506 
	C869.363525,86.384613 868.167480,82.859940 865.905640,81.931259 
	C863.788025,81.061829 860.524963,82.883087 857.794617,83.625481 
	C851.698059,85.283165 848.117798,82.741737 848.081482,76.292091 
	C848.065369,73.432907 848.820190,70.569389 849.251587,67.520500 
	C852.419678,67.861717 855.973755,67.207565 857.062073,68.550987 
	C860.710754,73.054825 864.788635,70.073112 868.640137,70.916550 
	C869.182434,68.291328 869.949524,66.339035 869.876465,64.418678 
	C869.808167,62.620220 869.392334,60.209808 868.183716,59.194763 
	C864.247681,55.889114 848.343506,56.246555 844.005432,58.848145 
	C839.221191,61.717285 837.768311,66.441277 835.989136,71.994057 
M707.033630,56.884605 
	C701.643250,56.834988 696.549683,56.408875 692.059204,61.141750 
	C687.524475,65.921341 686.063110,71.357567 686.124573,77.284050 
	C686.219116,86.408356 690.126770,92.693588 696.944153,93.998604 
	C705.599854,95.655510 714.562622,96.875374 721.610413,89.263489 
	C719.908203,86.523163 718.198303,83.770554 716.506287,81.046638 
	C710.994080,82.549774 705.355591,86.645615 700.414368,82.317551 
	C696.304321,78.717468 698.616028,73.219254 699.709045,66.924240 
	C703.358398,68.263962 706.544495,69.239655 709.557678,70.598686 
	C712.159180,71.772064 718.574951,70.895363 719.507996,68.915520 
	C722.187988,63.228928 719.290283,57.806320 713.094299,57.002987 
	C711.346008,56.776321 709.572449,56.745159 707.033630,56.884605 
M287.383911,56.267151 
	C285.428925,56.511757 283.465515,57.018185 281.520355,56.955803 
	C272.930969,56.680340 266.079224,62.268158 265.047577,71.000099 
	C264.613464,74.674072 265.115723,78.448639 264.961365,82.167900 
	C264.691193,88.677322 271.288727,93.767700 275.933899,94.322296 
	C284.249725,95.315132 292.860962,96.814468 299.518738,89.195160 
	C297.977112,86.697853 296.213470,83.840889 294.468842,81.014740 
	C288.888000,82.618149 283.198364,86.673126 278.324371,82.246132 
	C274.353271,78.639229 276.623474,73.125626 277.792603,66.955765 
	C281.274078,68.191612 284.218231,69.756676 287.321167,70.193459 
	C290.489105,70.639389 294.893677,71.222809 296.838501,69.535225 
	C300.623047,66.251251 297.479736,58.298916 292.541046,57.155941 
	C291.105286,56.823647 289.603638,56.775715 287.383911,56.267151 
M665.408569,94.995865 
	C668.378784,95.102356 671.537476,95.181137 670.922546,90.852043 
	C670.534668,88.121590 673.033081,83.920776 668.079407,83.135147 
	C664.914185,82.633171 661.604736,83.041130 658.473389,83.041130 
	C657.122131,94.400612 657.406006,94.918159 665.408569,94.995865 
z"/>
<path fill="#ECECEC" opacity="1.000000" stroke="none" 
	d="
M7.003450,92.270752 
	C5.191290,91.982826 3.379131,91.694901 1.283486,91.703491 
	C1.000000,84.312424 1.000000,76.624847 1.000000,68.468628 
	C2.388884,67.994957 3.777767,67.989922 5.592445,68.396606 
	C5.445929,76.666962 5.462884,84.500847 7.003450,92.270752 
z"/>
<path fill="#ECECEC" opacity="1.000000" stroke="none" 
	d="
M670.444153,151.000000 
	C670.523926,149.855286 671.047913,148.710571 670.997803,148.820053 
	C669.009216,146.291107 667.498596,144.369949 665.987915,142.448792 
	C667.864014,141.292679 669.630981,139.731491 671.670532,139.182129 
	C672.473206,138.965927 674.301147,140.802429 674.931641,142.068100 
	C676.222839,144.659851 677.020142,147.497696 678.010376,150.617111 
	C675.629456,151.000000 673.258850,151.000000 670.444153,151.000000 
z"/>
<path fill="#737373" opacity="1.000000" stroke="none" 
	d="
M7.102300,92.586029 
	C5.462884,84.500847 5.445929,76.666962 6.009133,68.395889 
	C6.019288,62.969852 6.038548,57.956257 6.471603,52.484184 
	C7.519127,52.188087 8.399715,52.139191 8.747871,52.545979 
	C11.771778,56.079132 14.655590,56.884365 18.034924,52.836185 
	C18.531631,52.241165 20.993288,52.554714 21.933502,53.261917 
	C22.927134,54.009300 23.647495,55.732796 23.640629,57.025402 
	C23.633747,58.321510 22.582201,59.612076 22.540462,59.702976 
	C24.665956,62.919220 26.176916,65.269264 27.760513,67.569305 
	C28.362741,68.443985 29.131926,69.203712 29.884237,70.440414 
	C29.943457,79.449219 29.943457,88.033447 29.943457,96.998711 
	C37.099739,96.998711 43.532619,96.998711 50.217453,96.900604 
	C50.699303,96.528656 50.929199,96.254799 51.445969,96.037071 
	C52.160271,96.674950 52.587700,97.256706 52.704727,98.141693 
	C52.619076,105.296112 52.843826,112.147293 53.531876,118.999039 
	C59.325092,119.053978 64.655014,119.108345 70.039154,119.494308 
	C75.225510,125.213425 80.407906,130.554382 85.464706,136.011719 
	C87.448395,138.152527 89.150749,140.554047 90.981232,142.836823 
	C80.985641,142.922211 70.989388,143.114197 60.994717,143.052200 
	C55.180214,143.016113 50.289761,137.068329 50.008873,130.022583 
	C49.897446,127.227501 49.990585,124.424248 49.990585,121.543724 
	C43.712143,119.687668 36.930702,123.247475 31.471384,117.329391 
	C26.359579,111.788033 29.079002,105.384834 27.531940,99.114479 
	C20.152031,99.127327 12.458202,99.730064 7.102300,92.586029 
z"/>
<path fill="#515151" opacity="1.000000" stroke="none" 
	d="
M64.992218,7.163353 
	C71.812111,7.102798 78.636002,6.870121 85.450798,7.028610 
	C92.712013,7.197481 98.081726,13.178028 98.003395,20.548401 
	C97.975594,23.164236 97.998947,25.780613 97.998947,28.600061 
	C104.664314,29.621944 111.317337,27.837477 116.685005,33.018757 
	C122.167412,38.310791 120.460762,44.917690 121.297707,51.992538 
	C123.517311,51.992538 125.759911,52.107544 127.987381,51.972641 
	C137.654739,51.387142 143.057968,56.465153 142.997757,66.108917 
	C142.954132,73.097717 142.972992,80.086922 142.574814,87.490509 
	C139.034576,85.013947 135.957535,82.036568 132.714447,79.252655 
	C128.259781,75.428711 123.679314,71.751328 119.092308,67.547577 
	C119.031868,62.870495 119.031868,58.656971 119.031868,54.080814 
	C111.896538,54.080814 105.512100,54.080814 99.013702,53.853687 
	C98.635788,53.435440 98.371841,53.244320 97.865562,52.911839 
	C97.399147,52.475136 97.175056,52.179790 96.964767,51.424965 
	C96.667259,44.312443 96.355957,37.659405 95.587349,31.004251 
	C92.082840,30.947800 89.035645,30.893461 85.941986,30.506836 
	C81.000854,25.020409 76.054985,19.913527 71.234428,14.690972 
	C69.026619,12.299052 67.065315,9.679610 64.992218,7.163353 
z"/>
<path fill="#484848" opacity="1.000000" stroke="none" 
	d="
M469.867462,57.134460 
	C472.196838,57.091198 474.546143,57.223949 476.850769,56.962517 
	C480.126648,56.590904 481.479065,57.966053 481.100647,61.245983 
	C484.228821,59.429749 486.968231,56.974224 490.125244,56.181149 
	C497.338593,54.369083 505.315338,59.088917 505.939819,66.405426 
	C506.479095,72.723503 507.043915,79.463928 505.446930,85.443275 
	C502.859619,95.130783 495.670471,96.810837 484.155457,93.496048 
	C483.559570,93.324509 483.016846,92.968269 481.953705,92.461960 
	C481.953705,98.001350 481.953705,103.109673 481.953705,108.953064 
	C477.987183,108.953064 474.396423,108.953064 470.364563,108.450478 
	C469.904755,91.010078 469.886108,74.072273 469.867462,57.134460 
M490.077515,67.025848 
	C482.775696,67.121315 482.002777,67.874535 481.996185,74.903893 
	C481.995087,76.067947 482.111786,77.245598 481.976318,78.393631 
	C481.476959,82.625229 483.785400,83.789047 487.513031,84.033028 
	C491.459076,84.291290 494.543884,83.640274 494.950958,79.011978 
	C495.348328,74.494316 495.231628,70.070107 490.077515,67.025848 
z"/>
<path fill="#484848" opacity="1.000000" stroke="none" 
	d="
M337.824219,67.979706 
	C325.996033,68.108376 325.998199,68.108376 325.994904,80.184288 
	C325.993744,84.506836 325.979462,88.829384 325.488770,93.584198 
	C321.424713,94.016472 317.843048,94.016472 313.880280,94.016472 
	C313.880280,75.922661 313.880280,58.510628 313.880280,41.098591 
	C328.518799,40.915398 325.690247,39.722412 325.988556,52.617561 
	C326.041412,54.902805 325.996033,57.190319 325.996033,60.025784 
	C335.253815,56.465755 344.446930,50.924713 350.021973,64.820450 
	C349.924377,75.141235 349.894226,84.610626 349.864105,94.080017 
	C346.509552,94.374992 343.154999,94.669960 339.399292,94.474380 
	C339.008026,86.764305 339.083282,79.543777 338.973114,72.326088 
	C338.950897,70.871780 338.225433,69.428223 337.824219,67.979706 
z"/>
<path fill="#484848" opacity="1.000000" stroke="none" 
	d="
M885.949463,41.083527 
	C900.381348,40.965115 897.759460,39.607864 897.951721,52.617260 
	C897.992493,55.372295 897.466614,58.135708 897.094788,62.010845 
	C902.217834,56.862072 907.724426,54.738544 914.130615,56.467815 
	C918.427979,57.627846 921.739136,60.556412 921.941040,64.941597 
	C922.389343,74.678619 922.080750,84.450493 922.080750,94.948021 
	C918.343323,94.948021 915.099487,94.948021 911.413696,94.441818 
	C910.979431,86.794846 911.058289,79.652878 910.937744,72.514267 
	C910.912170,71.000282 910.158752,69.498589 909.740662,67.991241 
	C906.158020,68.568680 902.575378,69.146118 898.192749,69.905602 
	C897.392822,77.954956 897.392822,85.822266 897.392822,93.800705 
	C892.951660,93.800705 889.511475,93.800705 886.071045,93.344589 
	C886.030396,75.620155 885.989929,58.351841 885.949463,41.083527 
z"/>
<path fill="#484848" opacity="1.000000" stroke="none" 
	d="
M819.164001,94.877411 
	C816.362427,94.877411 813.560852,94.877411 810.489563,94.877411 
	C810.179321,93.259026 809.911499,91.861893 809.852722,91.555077 
	C804.780518,92.722626 799.890381,94.798851 795.017578,94.758987 
	C786.585266,94.690018 782.685547,85.219292 787.461609,78.062126 
	C790.811829,73.041801 795.891541,72.293404 801.193176,71.923126 
	C803.296570,71.776215 805.418823,71.899010 808.895020,71.899010 
	C807.661804,69.339203 807.271301,66.943924 806.058105,66.406754 
	C804.501038,65.717354 801.082275,65.846642 800.549500,66.794518 
	C797.682129,71.895981 793.352356,69.379662 789.229126,69.894905 
	C789.136414,68.615379 789.004395,67.666229 789.008728,66.717705 
	C789.051941,57.186478 788.159668,58.744980 796.571228,57.212368 
	C803.675720,55.917892 811.671875,54.251354 817.511780,61.116005 
	C818.715027,62.530472 819.197693,64.557938 820.015259,67.147675 
	C820.023254,71.771996 820.139526,75.555389 820.006897,79.330048 
	C819.824646,84.515968 819.453979,89.695274 819.164001,94.877411 
M807.459106,80.498192 
	C804.437012,80.331245 801.414917,80.164299 796.821411,79.910553 
	C798.517944,82.617371 799.897522,85.291039 800.171448,85.182190 
	C802.789062,84.142151 805.219727,82.631355 807.459106,80.498192 
z"/>
<path fill="#494949" opacity="1.000000" stroke="none" 
	d="
M381.438324,56.002682 
	C385.885468,56.633690 390.019592,56.870602 393.876190,58.030396 
	C400.125763,59.909824 401.960846,65.420471 402.890167,71.095894 
	C403.453064,74.533531 397.756042,79.890488 393.799591,79.966164 
	C388.710693,80.063499 383.618561,79.989853 378.328156,79.989853 
	C380.957672,85.847687 385.027283,86.176636 399.599121,81.918556 
	C400.419800,84.072685 401.640656,86.235321 401.954315,88.522369 
	C402.121155,89.739090 401.010803,92.011620 399.975739,92.373383 
	C391.573730,95.309883 382.962280,96.350456 374.540283,92.624878 
	C369.470764,90.382286 366.918488,86.123444 366.993225,80.452980 
	C367.021729,78.288582 367.007935,76.123581 367.007629,73.958855 
	C367.006165,63.424156 370.565186,58.861259 381.438324,56.002682 
M390.405579,69.161110 
	C388.318298,66.811790 385.942657,64.947067 382.704559,66.715355 
	C380.894562,67.703804 379.412079,69.292046 377.782013,70.610023 
	C378.150269,71.291389 378.518555,71.972748 378.886810,72.654114 
	C382.823486,71.720589 386.760193,70.787056 390.405579,69.161110 
z"/>
<path fill="#494949" opacity="1.000000" stroke="none" 
	d="
M246.600281,77.884216 
	C244.526154,78.766548 242.757507,79.812294 240.939133,79.907410 
	C236.171448,80.156807 231.382080,79.991577 225.896408,79.991577 
	C228.316147,85.063324 232.357498,85.346275 236.101471,84.869377 
	C239.902328,84.385239 243.565872,82.823158 247.251068,81.744415 
	C251.079147,91.827003 250.535065,93.276817 240.188293,94.681633 
	C233.219559,95.627808 225.968979,95.632469 219.875732,90.953552 
	C218.496201,89.894211 216.903000,88.500114 216.445435,86.953278 
	C213.613846,77.381081 212.391190,67.840782 220.526489,59.987919 
	C222.259399,58.315186 224.809189,56.893417 227.155762,56.554428 
	C237.496674,55.060558 249.432846,57.226944 250.597610,70.761215 
	C250.932556,74.653275 248.251541,75.439888 246.600281,77.884216 
M233.262131,71.707817 
	C235.103622,71.707817 236.945099,71.707817 239.180710,71.707817 
	C237.913147,67.387840 235.639435,65.670502 232.024139,66.047783 
	C228.790573,66.385231 226.555481,67.913361 226.398743,72.117622 
	C228.648041,71.869949 230.581146,71.657089 233.262131,71.707817 
z"/>
<path fill="#494949" opacity="1.000000" stroke="none" 
	d="
M540.851074,94.989975 
	C532.963257,94.609650 525.346680,93.328659 523.035950,85.092819 
	C520.593140,76.385925 519.674744,67.136131 527.482971,60.011551 
	C529.276245,58.375282 531.760559,56.967602 534.115601,56.568489 
	C543.692261,54.945496 556.036255,57.309872 557.308533,69.315475 
	C557.829590,74.232956 553.935425,79.845779 548.713684,79.965042 
	C543.642151,80.080872 538.565918,79.990181 532.833618,79.990181 
	C535.580872,85.874886 540.168335,84.769936 544.168701,84.765625 
	C545.732483,84.763939 547.317688,83.919380 548.854675,83.353996 
	C554.710388,81.199913 554.394165,81.284691 556.317627,87.210480 
	C557.587830,91.123657 556.046387,92.482262 552.746765,93.091652 
	C548.926514,93.797188 545.080444,94.362488 540.851074,94.989975 
M536.850708,72.007645 
	C539.842041,72.007645 542.833435,72.007645 546.233154,72.007645 
	C543.563416,65.653732 538.259338,64.271378 534.554260,68.128174 
	C532.669495,70.090096 532.092590,71.975517 536.850708,72.007645 
z"/>
<path fill="#494949" opacity="1.000000" stroke="none" 
	d="
M772.005005,76.852402 
	C771.760437,85.251503 768.795593,92.501266 757.744385,94.392792 
	C753.762878,95.074265 749.497742,95.093109 745.502808,94.486710 
	C738.047546,93.355034 735.019104,87.807922 734.071716,80.982307 
	C732.810425,71.895424 735.043823,63.305168 742.809021,58.451477 
	C749.334473,54.372696 757.348938,54.383911 764.505310,58.786171 
	C771.146667,62.871597 772.295105,69.340988 772.005005,76.852402 
M746.116394,71.128441 
	C746.401794,74.697792 746.160217,78.413589 747.101562,81.800667 
	C748.371338,86.369835 752.425293,84.881020 755.734985,84.702484 
	C758.777100,84.538368 760.106750,82.962372 760.005737,79.972755 
	C759.927551,77.661072 760.287170,75.279686 759.846680,73.048859 
	C759.279968,70.179062 758.436340,67.078583 754.538574,67.022560 
	C751.381714,66.977188 747.400635,65.060066 746.116394,71.128441 
z"/>
<path fill="#494949" opacity="1.000000" stroke="none" 
	d="
M439.667145,91.458519 
	C438.033051,88.360710 436.563904,85.607887 434.691895,82.100128 
	C433.082092,84.804771 431.100555,86.928726 430.504547,89.388420 
	C429.296082,94.375664 426.548248,95.778511 421.864075,94.640854 
	C419.847076,94.150978 417.770813,93.904892 414.575439,93.348480 
	C417.148224,88.750343 418.842499,84.427238 421.656921,81.032860 
	C424.892487,77.130478 423.831909,74.336082 421.315033,70.883110 
	C418.469421,66.979080 415.439728,62.984886 416.356384,56.404713 
	C420.775909,57.035522 425.889984,56.361214 428.822815,58.575668 
	C431.806671,60.828682 432.642090,65.927094 434.914642,70.856087 
	C437.647339,65.391632 439.893494,60.900085 442.126587,56.434631 
	C445.637329,56.677158 449.636261,56.953415 455.346130,57.347870 
	C452.971649,61.914852 451.450195,65.988289 448.960449,69.343063 
	C445.757721,73.658455 444.662628,76.979225 448.829498,81.599854 
	C451.533112,84.597855 452.590210,89.080658 454.677277,93.519714 
	C450.408142,94.059181 446.917603,94.802032 443.432892,94.775726 
	C442.225220,94.766609 441.031982,92.849251 439.667145,91.458519 
z"/>
<path fill="#484848" opacity="1.000000" stroke="none" 
	d="
M631.563599,67.645721 
	C631.258118,72.953514 631.258118,77.925346 631.258118,83.355843 
	C634.573181,83.355843 637.887390,83.355843 641.354309,83.355843 
	C641.424011,83.429420 641.767517,83.625702 641.845276,83.897865 
	C644.894653,94.576561 643.731140,94.257607 633.564758,94.942596 
	C630.522766,95.147575 627.172180,95.091911 624.398560,94.024086 
	C619.291809,92.057976 618.049561,87.346237 618.012939,82.300682 
	C617.977173,77.368507 618.005127,72.435867 618.005127,67.629860 
	C611.531189,66.535576 611.531189,66.535576 612.216858,57.491619 
	C613.848999,57.212845 615.570374,56.918823 617.676758,56.559044 
	C617.784302,55.146496 617.937683,53.707012 617.991516,52.263809 
	C618.046509,50.790035 618.003723,49.312611 618.003723,47.943867 
	C628.114075,45.060547 630.034912,46.297745 631.546570,57.003998 
	C633.357544,57.003998 635.283386,57.004002 637.209229,57.004002 
	C638.993408,57.004002 640.777527,57.003998 642.851379,57.003998 
	C642.490234,59.900364 642.559143,62.293354 641.786621,64.373917 
	C641.362427,65.516457 639.624023,66.568092 638.293396,66.885101 
	C636.235107,67.375496 634.018555,67.201836 631.563599,67.645721 
z"/>
<path fill="#484848" opacity="1.000000" stroke="none" 
	d="
M200.006165,59.948486 
	C200.083725,65.791412 200.083725,65.791412 189.335373,67.574097 
	C189.335373,72.604897 189.335373,77.700325 189.335373,83.004662 
	C191.769714,83.004662 194.317825,82.961205 196.863983,83.013481 
	C202.612823,83.131508 200.368500,87.942184 201.371506,90.819153 
	C202.476685,93.989220 199.965607,94.055374 198.086563,94.183449 
	C193.359436,94.505623 188.596100,94.954498 183.886322,94.680847 
	C179.509842,94.426552 176.207977,88.502495 176.018707,81.520760 
	C175.901520,77.197746 175.913010,72.871323 175.837906,68.546928 
	C175.832733,68.249352 175.586395,67.955956 175.310898,67.349609 
	C173.409561,67.119560 171.336380,66.868721 169.112335,66.599632 
	C169.510635,63.482937 169.879196,60.598858 170.291473,57.372810 
	C171.858795,57.151562 173.598541,56.905972 175.695633,56.609932 
	C175.884399,53.613884 176.068481,50.692387 176.298706,47.038155 
	C180.005508,47.038155 183.597748,47.038155 187.617966,47.520790 
	C188.045929,50.880146 188.045929,53.756874 188.045929,56.977768 
	C191.721390,56.977768 194.679718,56.742500 197.559708,57.114178 
	C198.481766,57.233173 199.196548,58.958244 200.006165,59.948486 
z"/>
<path fill="#494949" opacity="1.000000" stroke="none" 
	d="
M836.012695,71.560226 
	C837.768311,66.441277 839.221191,61.717285 844.005432,58.848145 
	C848.343506,56.246555 864.247681,55.889114 868.183716,59.194763 
	C869.392334,60.209808 869.808167,62.620220 869.876465,64.418678 
	C869.949524,66.339035 869.182434,68.291328 868.640137,70.916550 
	C864.788635,70.073112 860.710754,73.054825 857.062073,68.550987 
	C855.973755,67.207565 852.419678,67.861717 849.251587,67.520500 
	C848.820190,70.569389 848.065369,73.432907 848.081482,76.292091 
	C848.117798,82.741737 851.698059,85.283165 857.794617,83.625481 
	C860.524963,82.883087 863.788025,81.061829 865.905640,81.931259 
	C868.167480,82.859940 869.363525,86.384613 871.698242,89.745506 
	C868.250061,91.581924 865.274475,94.348740 862.102356,94.596252 
	C856.461670,95.036415 850.562500,94.578033 845.026306,93.348244 
	C837.708374,91.722694 836.849426,85.104996 836.053345,78.969917 
	C835.756287,76.680405 835.994812,74.321388 836.012695,71.560226 
z"/>
<path fill="#494949" opacity="1.000000" stroke="none" 
	d="
M707.422058,56.754467 
	C709.572449,56.745159 711.346008,56.776321 713.094299,57.002987 
	C719.290283,57.806320 722.187988,63.228928 719.507996,68.915520 
	C718.574951,70.895363 712.159180,71.772064 709.557678,70.598686 
	C706.544495,69.239655 703.358398,68.263962 699.709045,66.924240 
	C698.616028,73.219254 696.304321,78.717468 700.414368,82.317551 
	C705.355591,86.645615 710.994080,82.549774 716.506287,81.046638 
	C718.198303,83.770554 719.908203,86.523163 721.610413,89.263489 
	C714.562622,96.875374 705.599854,95.655510 696.944153,93.998604 
	C690.126770,92.693588 686.219116,86.408356 686.124573,77.284050 
	C686.063110,71.357567 687.524475,65.921341 692.059204,61.141750 
	C696.549683,56.408875 701.643250,56.834988 707.422058,56.754467 
z"/>
<path fill="#494949" opacity="1.000000" stroke="none" 
	d="
M287.758057,56.432297 
	C289.603638,56.775715 291.105286,56.823647 292.541046,57.155941 
	C297.479736,58.298916 300.623047,66.251251 296.838501,69.535225 
	C294.893677,71.222809 290.489105,70.639389 287.321167,70.193459 
	C284.218231,69.756676 281.274078,68.191612 277.792603,66.955765 
	C276.623474,73.125626 274.353271,78.639229 278.324371,82.246132 
	C283.198364,86.673126 288.888000,82.618149 294.468842,81.014740 
	C296.213470,83.840889 297.977112,86.697853 299.518738,89.195160 
	C292.860962,96.814468 284.249725,95.315132 275.933899,94.322296 
	C271.288727,93.767700 264.691193,88.677322 264.961365,82.167900 
	C265.115723,78.448639 264.613464,74.674072 265.047577,71.000099 
	C266.079224,62.268158 272.930969,56.680340 281.520355,56.955803 
	C283.465515,57.018185 285.428925,56.511757 287.758057,56.432297 
z"/>
<path fill="#656565" opacity="1.000000" stroke="none" 
	d="
M142.823380,132.010376 
	C142.209167,138.212250 137.198044,143.041687 131.266861,143.058945 
	C125.817825,143.074799 120.368553,143.006393 114.409790,142.570297 
	C111.871490,139.601440 109.946632,136.946228 107.792519,134.492264 
	C103.255798,129.323990 98.598907,124.261230 94.454590,119.090172 
	C97.740707,119.014336 100.564781,118.945122 103.386177,119.004135 
	C110.478447,119.152466 116.146828,116.944603 119.084679,110.138916 
	C122.337234,113.649460 125.282501,117.026512 128.585480,120.007172 
	C133.191315,124.163528 138.064575,128.023544 142.823380,132.010376 
z"/>
<path fill="#565656" opacity="1.000000" stroke="none" 
	d="
M64.526733,7.108401 
	C67.065315,9.679610 69.026619,12.299052 71.234428,14.690972 
	C76.054985,19.913527 81.000854,25.020409 85.476852,30.561520 
	C74.033577,30.915255 63.008976,30.882025 51.940529,30.515545 
	C47.001198,25.023893 42.054607,19.912626 37.233086,14.685991 
	C35.024323,12.291642 33.061508,9.670408 30.987154,7.152068 
	C42.011852,7.119195 53.036549,7.086323 64.526733,7.108401 
z"/>
<path fill="#484848" opacity="1.000000" stroke="none" 
	d="
M573.954712,57.073803 
	C577.410461,57.073803 580.866272,57.073803 584.567993,57.073803 
	C584.830139,59.334984 585.048828,61.221073 585.364624,63.945549 
	C588.290527,59.826462 590.951233,55.982990 596.039856,57.122757 
	C597.800293,57.517082 600.781311,59.851349 600.617676,60.257629 
	C599.481995,63.077679 601.759399,67.385086 597.275513,68.751266 
	C596.501770,68.987022 595.635254,68.909111 594.814270,69.000641 
	C587.175171,69.852386 585.997131,71.182129 585.996338,78.938904 
	C585.995972,82.426315 585.758057,85.934212 586.055847,89.396004 
	C586.435364,93.808121 584.695923,95.532471 580.352600,95.029251 
	C578.549255,94.820305 576.703064,94.980408 574.456543,94.486984 
	C574.009399,81.692131 573.982056,69.382965 573.954712,57.073803 
z"/>
<path fill="#6A6A6A" opacity="1.000000" stroke="none" 
	d="
M93.991325,119.155174 
	C98.598907,124.261230 103.255798,129.323990 107.792519,134.492264 
	C109.946632,136.946228 111.871490,139.601440 113.944511,142.505844 
	C106.629951,142.889847 99.271088,142.933517 91.446732,142.907013 
	C89.150749,140.554047 87.448395,138.152527 85.464706,136.011719 
	C80.407906,130.554382 75.225510,125.213425 70.504349,119.424156 
	C78.607330,119.066666 86.299332,119.110924 93.991325,119.155174 
z"/>
<path fill="#5F5F5F" opacity="1.000000" stroke="none" 
	d="
M142.890518,131.545166 
	C138.064575,128.023544 133.191315,124.163528 128.585480,120.007172 
	C125.282501,117.026512 122.337234,113.649460 119.108032,109.683578 
	C119.044731,102.284203 119.105774,95.650482 119.520721,89.020172 
	C122.071915,90.671867 124.399475,92.174210 126.441422,93.996567 
	C131.969513,98.930206 137.376312,103.999779 142.831207,109.015442 
	C142.873367,116.370277 142.915512,123.725121 142.890518,131.545166 
z"/>
<path fill="#5F5F5F" opacity="1.000000" stroke="none" 
	d="
M30.523392,7.099411 
	C33.061508,9.670408 35.024323,12.291642 37.233086,14.685991 
	C42.054607,19.912626 47.001198,25.023893 51.485302,30.567938 
	C45.424236,31.979307 39.774559,33.005032 33.816895,33.886711 
	C27.356190,27.992672 21.095739,22.351400 15.116546,16.426304 
	C13.327529,14.653476 12.324438,12.087546 10.961277,9.884975 
	C13.398229,8.906399 15.769979,7.374175 18.287262,7.077724 
	C22.158903,6.621775 26.130463,7.014252 30.523392,7.099411 
z"/>
<path fill="#656565" opacity="1.000000" stroke="none" 
	d="
M10.649420,10.053221 
	C12.324438,12.087546 13.327529,14.653476 15.116546,16.426304 
	C21.095739,22.351400 27.356190,27.992672 33.650257,34.209389 
	C29.862284,39.488197 29.969528,45.277569 29.483021,50.998421 
	C27.633036,50.038792 25.932095,49.303787 24.678299,48.102207 
	C20.108402,43.722622 15.771585,39.098034 11.158853,34.766045 
	C9.814960,33.503944 7.844168,32.909370 6.160734,32.008816 
	C6.560706,25.740431 4.239049,19.210747 7.900173,13.263822 
	C8.576206,12.165711 9.518282,11.231387 10.649420,10.053221 
z"/>
<path fill="#565656" opacity="1.000000" stroke="none" 
	d="
M142.897949,108.549828 
	C137.376312,103.999779 131.969513,98.930206 126.441422,93.996567 
	C124.399475,92.174210 122.071915,90.671867 119.454285,88.554268 
	C119.073540,81.393692 119.113144,74.702415 119.152748,68.011139 
	C123.679314,71.751328 128.259781,75.428711 132.714447,79.252655 
	C135.957535,82.036568 139.034576,85.013947 142.515167,87.956177 
	C142.884705,94.699593 142.924698,101.391907 142.897949,108.549828 
z"/>
<path fill="#6A6A6A" opacity="1.000000" stroke="none" 
	d="
M6.101868,32.473419 
	C7.844168,32.909370 9.814960,33.503944 11.158853,34.766045 
	C15.771585,39.098034 20.108402,43.722622 24.678299,48.102207 
	C25.932095,49.303787 27.633036,50.038792 29.542114,51.462883 
	C29.911966,57.963856 29.868492,63.989845 29.825020,70.015831 
	C29.131926,69.203712 28.362741,68.443985 27.760513,67.569305 
	C26.176916,65.269264 24.665956,62.919220 22.540462,59.702976 
	C22.582201,59.612076 23.633747,58.321510 23.640629,57.025402 
	C23.647495,55.732796 22.927134,54.009300 21.933502,53.261917 
	C20.993288,52.554714 18.531631,52.241165 18.034924,52.836185 
	C14.655590,56.884365 11.771778,56.079132 8.747871,52.545979 
	C8.399715,52.139191 7.519127,52.188087 6.529415,52.021805 
	C6.129956,45.657944 6.086479,39.297981 6.101868,32.473419 
z"/>
<path fill="#484848" opacity="1.000000" stroke="none" 
	d="
M664.953674,94.995911 
	C657.406006,94.918159 657.122131,94.400612 658.473389,83.041130 
	C661.604736,83.041130 664.914185,82.633171 668.079407,83.135147 
	C673.033081,83.920776 670.534668,88.121590 670.922546,90.852043 
	C671.537476,95.181137 668.378784,95.102356 664.953674,94.995911 
z"/>
<path fill="#D8D8D8" opacity="1.000000" stroke="none" 
	d="
M313.494934,41.288704 
	C313.880280,58.510628 313.880280,75.922661 313.880280,94.016472 
	C317.843048,94.016472 321.424713,94.016472 325.463013,94.058502 
	C321.820435,94.529549 317.721191,94.958572 313.109619,95.441216 
	C313.109619,77.070694 313.109619,59.274757 313.494934,41.288704 
z"/>
<path fill="#737373" opacity="1.000000" stroke="none" 
	d="
M885.565369,41.274933 
	C885.989929,58.351841 886.030396,75.620155 885.821899,93.396973 
	C885.412109,93.959488 885.251221,94.013489 885.090271,94.067497 
	C885.120605,76.533783 885.150940,59.000061 885.565369,41.274933 
z"/>
<path fill="#B2B2B2" opacity="1.000000" stroke="none" 
	d="
M469.510376,57.354733 
	C469.886108,74.072273 469.904755,91.010078 469.895081,108.406876 
	C469.589691,108.006386 469.071686,107.147041 469.071198,106.287399 
	C469.062012,90.049957 469.114044,73.812477 469.510376,57.354733 
z"/>
<path fill="#737373" opacity="1.000000" stroke="none" 
	d="
M573.566406,57.260811 
	C573.982056,69.382965 574.009399,81.692131 573.995361,94.462990 
	C573.612854,94.273087 572.973511,93.620934 572.974731,92.969955 
	C572.996643,81.129166 573.095642,69.288506 573.566406,57.260811 
z"/>
<path fill="#D8D8D8" opacity="1.000000" stroke="none" 
	d="
M885.251709,94.468384 
	C885.251221,94.013489 885.412109,93.959488 885.822144,93.853096 
	C889.511475,93.800705 892.951660,93.800705 897.392822,93.800705 
	C897.392822,85.822266 897.392822,77.954956 897.851624,70.032684 
	C898.310425,78.192734 898.310425,86.407753 898.310425,94.869270 
	C893.583252,94.869270 889.498230,94.869270 885.251709,94.468384 
z"/>
<path fill="#B2B2B2" opacity="1.000000" stroke="none" 
	d="
M350.108887,94.373550 
	C349.894226,84.610626 349.924377,75.141235 349.974426,65.182274 
	C350.332397,65.357285 350.973450,66.026772 350.962769,66.685692 
	C350.811554,76.013664 350.571930,85.340202 350.108887,94.373550 
z"/>
<path fill="#ECECEC" opacity="1.000000" stroke="none" 
	d="
M819.593628,94.931458 
	C819.453979,89.695274 819.824646,84.515968 820.006897,79.330048 
	C820.139526,75.555389 820.023254,71.771996 820.013428,67.527924 
	C820.332153,68.347931 820.917664,69.628990 820.934998,70.917686 
	C821.027710,77.813873 821.021606,84.712502 820.935913,91.608871 
	C820.921936,92.738022 820.341797,93.860138 819.593628,94.931458 
z"/>
<path fill="#B2B2B2" opacity="1.000000" stroke="none" 
	d="
M337.891388,68.445679 
	C338.225433,69.428223 338.950897,70.871780 338.973114,72.326088 
	C339.083282,79.543777 339.008026,86.764305 338.949341,94.443939 
	C338.593109,91.404175 338.122650,87.909210 338.016785,84.403252 
	C337.860901,79.243507 337.965118,74.075912 337.891388,68.445679 
z"/>
<path fill="#6A6A6A" opacity="1.000000" stroke="none" 
	d="
M909.843689,68.452255 
	C910.158752,69.498589 910.912170,71.000282 910.937744,72.514267 
	C911.058289,79.652878 910.979431,86.794846 910.949951,94.392197 
	C910.619995,91.006088 910.172302,87.168243 910.038940,83.319504 
	C909.872742,78.522118 909.965698,73.715767 909.843689,68.452255 
z"/>
<path fill="#D8D8D8" opacity="1.000000" stroke="none" 
	d="
M200.400024,59.805973 
	C199.196548,58.958244 198.481766,57.233173 197.559708,57.114178 
	C194.679718,56.742500 191.721390,56.977768 188.045929,56.977768 
	C188.045929,53.756874 188.045929,50.880146 188.087830,47.555431 
	C188.560547,49.873352 188.991348,52.639263 189.492783,55.858650 
	C193.007401,55.858650 196.874298,55.858650 200.793869,55.858650 
	C200.793869,57.402542 200.793869,58.533005 200.400024,59.805973 
z"/>
<path fill="#000000" opacity="1.000000" stroke="none" 
	d="
M29.884239,70.440414 
	C29.868492,63.989845 29.911966,57.963856 29.896347,51.473412 
	C29.969528,45.277569 29.862284,39.488197 33.958244,34.353439 
	C39.774559,33.005032 45.424236,31.979307 51.529144,30.901188 
	C63.008976,30.882025 74.033577,30.915255 85.523315,30.893803 
	C89.035645,30.893461 92.082840,30.947800 95.580162,31.472269 
	C96.030281,38.197235 96.030281,44.452068 96.030281,51.121525 
	C84.340714,51.121525 73.234337,51.121525 61.794220,51.161125 
	C60.637184,51.524490 59.813889,51.848259 58.659134,52.234207 
	C54.857544,54.720646 50.428455,56.413738 50.590832,62.103516 
	C50.113621,73.860947 50.039558,85.429825 49.965500,96.998711 
	C43.532619,96.998711 37.099739,96.998711 29.943457,96.998711 
	C29.943457,88.033447 29.943457,79.449219 29.884239,70.440414 
z"/>
<path fill="#000000" opacity="1.000000" stroke="none" 
	d="
M119.092308,67.547577 
	C119.113144,74.702415 119.073540,81.393692 119.100372,88.550873 
	C119.105774,95.650482 119.044731,102.284203 118.960342,109.373245 
	C116.146828,116.944603 110.478447,119.152466 103.386177,119.004135 
	C100.564781,118.945122 97.740707,119.014336 94.454590,119.090172 
	C86.299332,119.110924 78.607330,119.066666 70.450134,119.092567 
	C64.655014,119.108345 59.325092,119.053978 53.510582,118.531036 
	C53.025997,111.801888 53.025997,105.541306 53.025997,99.004028 
	C63.743767,99.004028 73.873978,99.042152 84.003273,98.963684 
	C85.555641,98.951660 87.103836,98.401772 88.991692,98.127274 
	C93.900124,96.678566 97.035042,93.812340 98.428726,88.844788 
	C98.751106,88.080330 98.824387,87.489113 98.945221,86.437836 
	C99.037735,75.345459 99.082703,64.713135 99.127670,54.080814 
	C105.512100,54.080814 111.896538,54.080814 119.031868,54.080814 
	C119.031868,58.656971 119.031868,62.870495 119.092308,67.547577 
z"/>
<path fill="#6A6A6A" opacity="1.000000" stroke="none" 
	d="
M53.015129,97.838455 
	C52.587700,97.256706 52.160271,96.674950 51.399994,95.571686 
	C51.093689,86.030960 51.120232,77.011749 51.476967,68.043640 
	C52.619831,68.646912 53.524616,69.101334 54.230602,69.766685 
	C59.880230,75.091095 65.658203,80.294518 71.057503,85.864006 
	C74.661560,89.581665 77.710114,93.837860 80.541023,97.907211 
	C71.054886,97.920410 62.035007,97.879433 53.015129,97.838455 
z"/>
<path fill="#B2B2B2" opacity="1.000000" stroke="none" 
	d="
M52.704727,98.141693 
	C62.035007,97.879433 71.054886,97.920410 81.009872,97.957718 
	C84.181305,98.002922 86.417633,98.051781 88.653961,98.100639 
	C87.103836,98.401772 85.555641,98.951660 84.003273,98.963684 
	C73.873978,99.042152 63.743767,99.004028 53.025997,99.004028 
	C53.025997,105.541306 53.025997,111.801888 53.047287,118.530472 
	C52.843826,112.147293 52.619076,105.296112 52.704727,98.141693 
z"/>
<path fill="#B2B2B2" opacity="1.000000" stroke="none" 
	d="
M51.146774,67.992531 
	C51.120232,77.011749 51.093689,86.030960 51.113121,95.515564 
	C50.929199,96.254799 50.699303,96.528656 50.217453,96.900604 
	C50.039558,85.429825 50.113621,73.860947 50.622261,62.537319 
	C51.086815,64.519226 51.116795,66.255882 51.146774,67.992531 
z"/>
<path fill="#565656" opacity="1.000000" stroke="none" 
	d="
M96.950974,51.884445 
	C97.175056,52.179790 97.399147,52.475136 97.835922,53.375366 
	C97.980438,60.647259 97.912254,67.314270 97.492401,73.978394 
	C94.027138,71.415611 90.675415,69.091431 87.854614,66.241730 
	C83.390244,61.731617 79.281448,56.869541 75.486496,52.102364 
	C82.950859,51.993698 89.950912,51.939072 96.950974,51.884445 
z"/>
<path fill="#B2B2B2" opacity="1.000000" stroke="none" 
	d="
M96.964767,51.424965 
	C89.950912,51.939072 82.950859,51.993698 75.028549,52.035469 
	C70.113525,51.722248 66.120750,51.421886 62.127968,51.121525 
	C73.234337,51.121525 84.340714,51.121525 96.030281,51.121525 
	C96.030281,44.452068 96.030281,38.197235 96.037468,31.474382 
	C96.355957,37.659405 96.667259,44.312443 96.964767,51.424965 
z"/>
<path fill="#B2B2B2" opacity="1.000000" stroke="none" 
	d="
M97.844070,73.981277 
	C97.912254,67.314270 97.980438,60.647259 98.078262,53.516724 
	C98.371841,53.244320 98.635788,53.435440 99.013702,53.853687 
	C99.082703,64.713135 99.037735,75.345459 98.618225,86.188675 
	C98.110481,82.260139 97.977272,78.120705 97.844070,73.981277 
z"/>
<path fill="#000000" opacity="1.000000" stroke="none" 
	d="
M490.484070,67.080276 
	C495.231628,70.070107 495.348328,74.494316 494.950958,79.011978 
	C494.543884,83.640274 491.459076,84.291290 487.513031,84.033028 
	C483.785400,83.789047 481.476959,82.625229 481.976318,78.393631 
	C482.111786,77.245598 481.995087,76.067947 481.996185,74.903893 
	C482.002777,67.874535 482.775696,67.121315 490.484070,67.080276 
z"/>
<path fill="#000000" opacity="1.000000" stroke="none" 
	d="
M807.581543,80.876923 
	C805.219727,82.631355 802.789062,84.142151 800.171448,85.182190 
	C799.897522,85.291039 798.517944,82.617371 796.821411,79.910553 
	C801.414917,80.164299 804.437012,80.331245 807.581543,80.876923 
z"/>
<path fill="#000000" opacity="1.000000" stroke="none" 
	d="
M390.551208,69.507324 
	C386.760193,70.787056 382.823486,71.720589 378.886810,72.654114 
	C378.518555,71.972748 378.150269,71.291389 377.782013,70.610023 
	C379.412079,69.292046 380.894562,67.703804 382.704559,66.715355 
	C385.942657,64.947067 388.318298,66.811790 390.551208,69.507324 
z"/>
<path fill="#000000" opacity="1.000000" stroke="none" 
	d="
M232.888199,71.576019 
	C230.581146,71.657089 228.648041,71.869949 226.398743,72.117622 
	C226.555481,67.913361 228.790573,66.385231 232.024139,66.047783 
	C235.639435,65.670502 237.913147,67.387840 239.180710,71.707817 
	C236.945099,71.707817 235.103622,71.707817 232.888199,71.576019 
z"/>
<path fill="#000000" opacity="1.000000" stroke="none" 
	d="
M536.417419,72.005943 
	C532.092590,71.975517 532.669495,70.090096 534.554260,68.128174 
	C538.259338,64.271378 543.563416,65.653732 546.233154,72.007645 
	C542.833435,72.007645 539.842041,72.007645 536.417419,72.005943 
z"/>
<path fill="#000000" opacity="1.000000" stroke="none" 
	d="
M746.234314,70.722832 
	C747.400635,65.060066 751.381714,66.977188 754.538574,67.022560 
	C758.436340,67.078583 759.279968,70.179062 759.846680,73.048859 
	C760.287170,75.279686 759.927551,77.661072 760.005737,79.972755 
	C760.106750,82.962372 758.777100,84.538368 755.734985,84.702484 
	C752.425293,84.881020 748.371338,86.369835 747.101562,81.800667 
	C746.160217,78.413589 746.401794,74.697792 746.234314,70.722832 
z"/>
<path fill="#656565" opacity="1.000000" stroke="none" 
	d="
M51.476967,68.043640 
	C51.116795,66.255882 51.086815,64.519226 51.025406,62.348778 
	C50.428455,56.413738 54.857544,54.720646 58.711006,52.573326 
	C61.841820,55.846413 64.497841,58.932991 67.354004,61.821690 
	C75.770103,70.333672 84.193947,78.841476 92.809898,87.148521 
	C94.048897,88.343086 96.363045,88.422523 98.179634,89.018028 
	C97.035042,93.812340 93.900124,96.678566 88.991692,98.127274 
	C86.417633,98.051781 84.181305,98.002922 81.476128,97.903549 
	C77.710114,93.837860 74.661560,89.581665 71.057503,85.864006 
	C65.658203,80.294518 59.880230,75.091095 54.230602,69.766685 
	C53.524616,69.101334 52.619831,68.646912 51.476967,68.043640 
z"/>
<path fill="#5F5F5F" opacity="1.000000" stroke="none" 
	d="
M98.428726,88.844788 
	C96.363045,88.422523 94.048897,88.343086 92.809898,87.148521 
	C84.193947,78.841476 75.770103,70.333672 67.354004,61.821690 
	C64.497841,58.932991 61.841820,55.846413 59.042469,52.511147 
	C59.813889,51.848259 60.637184,51.524490 61.794220,51.161125 
	C66.120750,51.421886 70.113525,51.722248 74.564247,52.089508 
	C79.281448,56.869541 83.390244,61.731617 87.854614,66.241730 
	C90.675415,69.091431 94.027138,71.415611 97.492401,73.978394 
	C97.977272,78.120705 98.110481,82.260139 98.570679,86.648735 
	C98.824387,87.489113 98.751106,88.080330 98.428726,88.844788 
z"/>
</svg>